<svg width="124" height="48" viewBox="0 0 124 48" fill="none" xmlns="http://www.w3.org/2000/svg">
<path d="M107.727 11.998L104.852 13.5122L105.399 10.3008L103.075 8.02719L106.287 7.556L107.727 4.63281L109.163 7.556L112.375 8.02719L110.051 10.3008L110.598 13.5122L107.727 11.998Z" fill="white"/>
<path d="M48.0867 35.7748V16.6187H52.1302V35.7748H48.0867ZM50.1061 13.5616C49.8138 13.5746 49.5218 13.5289 49.2473 13.4271C48.9727 13.3252 48.721 13.1694 48.507 12.9686C48.3022 12.7545 48.1446 12.4992 48.0446 12.2196C47.9446 11.9399 47.9045 11.6422 47.9268 11.3458C47.9053 11.0495 47.9459 10.752 48.0458 10.4725C48.1458 10.193 48.3029 9.93767 48.507 9.72305C48.9549 9.34434 49.5211 9.13672 50.1061 9.13672C50.6911 9.13672 51.2574 9.34434 51.7053 9.72305C51.9131 9.9369 52.0742 10.1922 52.1781 10.4725C52.2819 10.7528 52.3263 11.0518 52.3084 11.3504C52.3268 11.6484 52.2827 11.9469 52.1787 12.2265C52.0748 12.5061 51.9135 12.7605 51.7053 12.9732C51.4907 13.1729 51.2389 13.3278 50.9644 13.4288C50.6899 13.5299 50.3981 13.575 50.1061 13.5616Z" fill="white"/>
<path d="M65.8683 36.2851C64.5854 36.3246 63.3084 36.0943 62.1171 35.6084C60.9259 35.1226 59.8462 34.3917 58.9457 33.4617C57.0918 31.558 56.1875 29.1945 56.1875 26.2332C56.1875 23.2719 57.0918 20.9175 58.9999 19.0276C59.9126 18.1036 61.0006 17.378 62.1976 16.895C63.3947 16.412 64.6759 16.1817 65.9633 16.2181C67.1092 16.1854 68.2497 16.3917 69.3143 16.8243C70.3789 17.2569 71.3451 17.9066 72.1533 18.7334C73.8128 20.3979 74.6583 22.8718 74.6583 26.0125C74.6583 26.4125 74.6583 26.762 74.6357 27.0517H60.0399L60.1756 27.8196C60.3923 29.2195 61.091 30.4955 62.147 31.4201C63.1844 32.3161 64.5074 32.7968 65.8683 32.772C66.7557 32.8021 67.6366 32.6078 68.4321 32.2065C69.2275 31.8052 69.9127 31.2096 70.4261 30.4728L73.8218 32.2248C73.0189 33.388 71.9678 34.3515 70.7471 35.0435C69.255 35.8826 67.5732 36.3106 65.8683 36.2851ZM65.8683 19.6944C64.7412 19.6906 63.6388 20.0301 62.7032 20.6692C61.752 21.3237 61.015 22.2525 60.587 23.3363L60.2208 24.2559H70.6567V23.5846C70.6296 22.5906 70.2244 21.646 69.5263 20.9497C68.744 20.1174 67.5187 19.6944 65.8683 19.6944Z" fill="white"/>
<path d="M85.7275 36.2869C84.7154 36.3139 83.7094 36.1205 82.7781 35.7199C82.0656 35.4164 81.4376 34.9416 80.9491 34.337C80.474 33.6629 80.1339 32.902 79.9477 32.0967C79.7126 31.2062 79.5596 30.2957 79.4904 29.3769C79.431 28.5241 79.399 27.4546 79.399 26.1962V20.2449H76.0792V16.5986H79.4081V11.0669H83.272V16.5986H88.5168V20.2311H83.2491V28.123C83.2461 28.6419 83.2721 29.1606 83.3269 29.6765C83.3856 30.1479 83.4944 30.6116 83.6515 31.0595C83.8211 31.5761 84.1494 32.025 84.5889 32.341C85.0557 32.6534 85.6063 32.8143 86.1665 32.802C86.7899 32.8048 87.4091 32.6972 87.9955 32.4839C88.3349 32.3677 88.6602 32.2131 88.9649 32.0229L90.1584 34.7888L89.9343 34.987C89.4563 35.3128 88.9383 35.5746 88.3933 35.766C87.5467 36.1126 86.6412 36.2895 85.7275 36.2869Z" fill="white"/>
<path d="M100.491 44.2681C99.3847 44.2594 98.2808 44.1701 97.1874 44.001C95.9879 43.8214 95.0337 43.6417 94.3521 43.4759L93.8387 43.3147L94.1567 39.8327C95.997 40.357 97.8904 40.666 99.8 40.7539C102.499 40.7539 105.707 39.6162 105.707 34.2043V29.9807L104.544 31.6066C103.809 32.6147 102.842 33.4244 101.727 33.9648C100.666 34.5153 99.4961 34.8131 98.3051 34.8353C97.4806 34.8404 96.6636 34.6766 95.9031 34.3536C95.1426 34.0307 94.4543 33.5554 93.8796 32.9561C92.5937 31.6987 91.9667 30.0682 91.9667 27.9725V16.6006H95.9879V25.7248C95.9879 30.2524 98.237 31.2059 100.123 31.2059C101.388 31.2395 102.634 30.8864 103.699 30.1926C104.687 29.5349 105.397 28.526 105.689 27.3645V27.2816V16.6006H109.528V34.2365C109.61 36.866 108.721 39.4319 107.034 41.4309C105.402 43.3424 103.253 44.2681 100.491 44.2681Z" fill="white"/>
<path d="M37.0289 35.7751L11.625 16.6376H18.0657L39.9222 33.7759V16.4722H43.7875V35.7751H37.0289Z" fill="white"/>
</svg>
