<svg width="496" height="192" viewBox="0 0 496 192" fill="none" xmlns="http://www.w3.org/2000/svg">
<g clip-path="url(#clip0_1_688)">
<g filter="url(#filter0_d_1_688)">
<path d="M430.909 47.9914L419.408 54.0482L421.595 41.2026L412.3 32.1083L425.15 30.2235L430.909 18.5308L436.65 30.2235L449.5 32.1083L440.205 41.2026L442.392 54.0482L430.909 47.9914Z" fill="white"/>
<path d="M192.347 143.099V66.4748H208.521V143.099H192.347ZM200.425 54.2465C199.255 54.2985 198.088 54.1156 196.989 53.7083C195.891 53.301 194.884 52.6775 194.028 51.8744C193.209 51.0179 192.579 49.9969 192.179 48.8783C191.779 47.7597 191.618 46.5687 191.707 45.3833C191.622 44.1982 191.784 43.0081 192.184 41.89C192.583 40.7719 193.212 39.7507 194.028 38.8922C195.82 37.3774 198.085 36.5469 200.425 36.5469C202.765 36.5469 205.03 37.3774 206.821 38.8922C207.653 39.7476 208.297 40.7688 208.713 41.8899C209.128 43.0111 209.306 44.2073 209.234 45.4017C209.308 46.5935 209.131 47.7875 208.715 48.906C208.3 50.0244 207.654 51.0422 206.821 51.8928C205.963 52.6918 204.956 53.3113 203.858 53.7154C202.76 54.1194 201.593 54.3 200.425 54.2465Z" fill="white"/>
<path d="M263.473 145.141C258.342 145.299 253.233 144.377 248.469 142.434C243.704 140.491 239.385 137.567 235.783 133.847C228.367 126.233 224.75 116.778 224.75 104.933C224.75 93.088 228.367 83.6707 236 76.1111C239.65 72.4149 244.002 69.5125 248.791 67.5805C253.579 65.6485 258.704 64.7273 263.853 64.8728C268.437 64.742 272.999 65.5672 277.257 67.2976C281.515 69.0279 285.38 71.6267 288.613 74.9339C295.251 81.5922 298.633 91.4878 298.633 104.05C298.633 105.651 298.633 107.048 298.543 108.207H240.16L240.702 111.279C241.569 116.878 244.364 121.982 248.588 125.681C252.737 129.265 258.03 131.188 263.473 131.088C267.023 131.209 270.547 130.432 273.728 128.826C276.91 127.221 279.651 124.839 281.704 121.892L295.287 128.9C292.075 133.552 287.871 137.407 282.988 140.175C277.02 143.531 270.293 145.243 263.473 145.141ZM263.473 78.7781C258.965 78.7629 254.555 80.121 250.813 82.6774C247.008 85.2951 244.06 89.0104 242.348 93.3455L240.883 97.0241H282.627V94.3387C282.518 90.3627 280.897 86.5846 278.105 83.7994C274.976 80.4703 270.075 78.7781 263.473 78.7781Z" fill="white"/>
<path d="M342.91 145.148C338.861 145.256 334.837 144.482 331.112 142.88C328.262 141.666 325.75 139.767 323.796 137.349C321.896 134.652 320.535 131.608 319.791 128.387C318.85 124.825 318.238 121.183 317.961 117.508C317.724 114.097 317.596 109.819 317.596 104.785V80.9803H304.317V66.395H317.632V44.2681H333.088V66.395H354.067V80.9249H332.996V112.493C332.984 114.568 333.088 116.643 333.307 118.707C333.542 120.592 333.977 122.447 334.606 124.238C335.284 126.305 336.597 128.1 338.355 129.364C340.223 130.614 342.425 131.258 344.666 131.208C347.16 131.22 349.636 130.789 351.982 129.936C353.34 129.471 354.64 128.853 355.859 128.092L360.633 139.156L359.737 139.948C357.825 141.252 355.753 142.299 353.573 143.065C350.187 144.451 346.565 145.159 342.91 145.148Z" fill="white"/>
<path d="M401.963 177.072C397.539 177.037 393.123 176.68 388.75 176.004C383.951 175.285 380.135 174.567 377.408 173.903L375.355 173.259L376.627 159.33C383.988 161.428 391.562 162.664 399.2 163.015C409.996 163.015 422.827 158.465 422.827 136.817V119.923L418.175 126.426C415.237 130.458 411.368 133.698 406.906 135.859C402.665 138.061 397.985 139.252 393.221 139.341C389.923 139.361 386.654 138.706 383.612 137.414C380.57 136.123 377.817 134.221 375.518 131.824C370.375 126.794 367.867 120.273 367.867 111.89V66.4021H383.951V102.899C383.951 121.009 392.948 124.823 400.49 124.823C405.552 124.958 410.535 123.545 414.794 120.77C418.748 118.139 421.588 114.104 422.755 109.458V109.126V66.4021H438.112V136.946C438.442 147.464 434.883 157.727 428.134 165.723C421.61 173.369 413.013 177.072 401.963 177.072Z" fill="white"/>
<path d="M148.116 143.099L46.5 66.549H72.2627L159.689 135.102V65.8872H175.15V143.099H148.116Z" fill="white"/>
</g>
</g>
<defs>
<filter id="filter0_d_1_688" x="6.5" y="-21.4692" width="483" height="238.542" filterUnits="userSpaceOnUse" color-interpolation-filters="sRGB">
<feFlood flood-opacity="0" result="BackgroundImageFix"/>
<feColorMatrix in="SourceAlpha" type="matrix" values="0 0 0 0 0 0 0 0 0 0 0 0 0 0 0 0 0 0 127 0" result="hardAlpha"/>
<feOffset/>
<feGaussianBlur stdDeviation="20"/>
<feComposite in2="hardAlpha" operator="out"/>
<feColorMatrix type="matrix" values="0 0 0 0 0 0 0 0 0 1 0 0 0 0 0.7 0 0 0 0.5 0"/>
<feBlend mode="normal" in2="BackgroundImageFix" result="effect1_dropShadow_1_688"/>
<feBlend mode="normal" in="SourceGraphic" in2="effect1_dropShadow_1_688" result="shape"/>
</filter>
<clipPath id="clip0_1_688">
<rect width="496" height="192" fill="white"/>
</clipPath>
</defs>
</svg>
