<svg width="40" height="40" viewBox="0 0 40 40" fill="none" xmlns="http://www.w3.org/2000/svg">
<path d="M31.2997 8.69992C28.8716 6.26439 25.7234 4.67604 22.3216 4.1703C18.9199 3.66457 15.4457 4.26836 12.4141 5.89219C9.3825 7.51603 6.95478 10.0735 5.49081 13.1854C4.02683 16.2974 3.60453 19.7982 4.28648 23.1691C4.96844 26.5399 6.71837 29.6013 9.27688 31.8994C11.8354 34.1976 15.0663 35.6102 18.4907 35.9279C21.9151 36.2456 25.3508 35.4515 28.2884 33.6632C31.226 31.875 33.5093 29.1878 34.7997 25.9999H30.3597C29.1236 28.1833 27.2341 29.9243 24.957 30.9781C22.68 32.0319 20.1299 32.3454 17.6654 31.8746C15.2009 31.4037 12.946 30.1723 11.2177 28.3533C9.48951 26.5343 8.3749 24.2194 8.03067 21.7341C7.68644 19.2487 8.1299 16.718 9.2987 14.4978C10.4675 12.2776 12.3028 10.4796 14.5466 9.35666C16.7903 8.23372 19.3296 7.84234 21.8074 8.23755C24.2851 8.63276 26.5766 9.79469 28.3597 11.5599L21.9997 17.9999H35.9997V3.99992L31.2997 8.69992Z" fill="white"/>
</svg>
