<svg width="40" height="40" viewBox="0 0 40 40" fill="none" xmlns="http://www.w3.org/2000/svg">
<path d="M31.2997 8.70016C28.8716 6.26463 25.7234 4.67628 22.3216 4.17055C18.9199 3.66481 15.4457 4.26861 12.4141 5.89244C9.3825 7.51627 6.95478 10.0737 5.49081 13.1857C4.02683 16.2976 3.60453 19.7985 4.28648 23.1693C4.96844 26.5401 6.71837 29.6015 9.27688 31.8997C11.8354 34.1979 15.0663 35.6105 18.4907 35.9282C21.9151 36.2459 25.3508 35.4517 28.2884 33.6635C31.226 31.8752 33.5093 29.188 34.7997 26.0002H30.3597C29.1236 28.1836 27.2341 29.9246 24.957 30.9784C22.68 32.0321 20.1299 32.3456 17.6654 31.8748C15.2009 31.404 12.946 30.1725 11.2177 28.3535C9.48951 26.5346 8.3749 24.2197 8.03067 21.7343C7.68644 19.249 8.1299 16.7183 9.2987 14.4981C10.4675 12.2778 12.3028 10.4798 14.5466 9.3569C16.7903 8.23396 19.3296 7.84258 21.8074 8.23779C24.2851 8.633 26.5766 9.79493 28.3597 11.5602L21.9997 18.0002H35.9997V4.00017L31.2997 8.70016Z" fill="white"/>
</svg>
