<svg width="32" height="32" viewBox="0 0 32 32" fill="none" xmlns="http://www.w3.org/2000/svg">
<path fill-rule="evenodd" clip-rule="evenodd" d="M18.6663 7.99992C17.93 7.99992 17.333 7.40297 17.333 6.66659C17.333 5.93021 17.93 5.33325 18.6663 5.33325H25.333C25.8723 5.33325 26.3585 5.65811 26.5648 6.15634C26.7712 6.65457 26.6572 7.22806 26.2758 7.60939L19.8536 14.0316C20.8096 15.3766 21.333 16.9946 21.333 18.6666C21.333 20.7883 20.4902 22.8232 18.9899 24.3234C17.4896 25.8237 15.4547 26.6666 13.333 26.6666C11.2113 26.6666 9.17645 25.8237 7.67615 24.3234C6.17586 22.8232 5.33301 20.7883 5.33301 18.6666C5.33301 16.5449 6.17586 14.51 7.67615 13.0097C9.17645 11.5094 11.2113 10.6666 13.333 10.6666C15.005 10.6666 16.623 11.19 17.968 12.146L22.1141 7.99992H18.6663ZM13.333 13.3333C11.9185 13.3333 10.562 13.8952 9.56177 14.8954C8.56158 15.8955 7.99967 17.2521 7.99967 18.6666C7.99967 20.0811 8.56158 21.4376 9.56177 22.4378C10.562 23.438 11.9185 23.9999 13.333 23.9999C14.7475 23.9999 16.1041 23.438 17.1042 22.4378C18.1044 21.4376 18.6663 20.0811 18.6663 18.6666C18.6663 17.2521 18.1044 15.8955 17.1042 14.8954C16.1041 13.8952 14.7475 13.3333 13.333 13.3333Z" fill="white" stroke="white" stroke-width="0.2" stroke-linecap="round" stroke-linejoin="round"/>
</svg>
