<svg width="32" height="32" viewBox="0 0 32 32" fill="none" xmlns="http://www.w3.org/2000/svg">
<path fill-rule="evenodd" clip-rule="evenodd" d="M10.3431 6.34315C11.8434 4.84285 13.8783 4 16 4C18.1217 4 20.1566 4.84285 21.6569 6.34315C23.1571 7.84344 24 9.87827 24 12C24 14.1217 23.1571 16.1566 21.6569 17.6569C20.4746 18.8391 18.9604 19.6131 17.3333 19.8881V28C17.3333 28.7364 16.7364 29.3333 16 29.3333C15.2636 29.3333 14.6667 28.7364 14.6667 28V25.3333H12C11.2636 25.3333 10.6667 24.7364 10.6667 24C10.6667 23.2636 11.2636 22.6667 12 22.6667H14.6667V19.8881C13.0396 19.6131 11.5254 18.8391 10.3431 17.6569C8.84285 16.1566 8 14.1217 8 12C8 9.87827 8.84285 7.84344 10.3431 6.34315ZM16 6.66667C14.5855 6.66667 13.229 7.22857 12.2288 8.22876C11.2286 9.22896 10.6667 10.5855 10.6667 12C10.6667 13.4145 11.2286 14.771 12.2288 15.7712C13.229 16.7714 14.5855 17.3333 16 17.3333C17.4145 17.3333 18.771 16.7714 19.7712 15.7712C20.7714 14.771 21.3333 13.4145 21.3333 12C21.3333 10.5855 20.7714 9.22896 19.7712 8.22876C18.771 7.22857 17.4145 6.66667 16 6.66667Z" fill="white" stroke="white" stroke-width="0.2" stroke-linecap="round" stroke-linejoin="round"/>
</svg>
