<svg width="32" height="32" viewBox="0 0 32 32" fill="none" xmlns="http://www.w3.org/2000/svg">
<path fill-rule="evenodd" clip-rule="evenodd" d="M18.6663 7.99998C17.93 7.99998 17.333 7.40303 17.333 6.66665C17.333 5.93027 17.93 5.33331 18.6663 5.33331H25.333C25.8723 5.33331 26.3585 5.65817 26.5648 6.1564C26.7712 6.65463 26.6572 7.22812 26.2758 7.60946L19.8536 14.0317C20.8096 15.3767 21.333 16.9947 21.333 18.6666C21.333 20.7884 20.4902 22.8232 18.9899 24.3235C17.4896 25.8238 15.4547 26.6666 13.333 26.6666C11.2113 26.6666 9.17645 25.8238 7.67615 24.3235C6.17586 22.8232 5.33301 20.7884 5.33301 18.6666C5.33301 16.5449 6.17586 14.5101 7.67615 13.0098C9.17645 11.5095 11.2113 10.6666 13.333 10.6666C15.005 10.6666 16.623 11.19 17.968 12.1461L22.1141 7.99998H18.6663ZM13.333 13.3333C11.9185 13.3333 10.562 13.8952 9.56177 14.8954C8.56158 15.8956 7.99967 17.2522 7.99967 18.6666C7.99967 20.0811 8.56158 21.4377 9.56177 22.4379C10.562 23.4381 11.9185 24 13.333 24C14.7475 24 16.1041 23.4381 17.1042 22.4379C18.1044 21.4377 18.6663 20.0811 18.6663 18.6666C18.6663 17.2522 18.1044 15.8956 17.1042 14.8954C16.1041 13.8952 14.7475 13.3333 13.333 13.3333Z" fill="white" stroke="white" stroke-width="0.2" stroke-linecap="round" stroke-linejoin="round"/>
</svg>
