<svg width="32" height="32" viewBox="0 0 32 32" fill="none" xmlns="http://www.w3.org/2000/svg">
<path fill-rule="evenodd" clip-rule="evenodd" d="M18.6663 8.00004C17.93 8.00004 17.333 7.40309 17.333 6.66671C17.333 5.93033 17.93 5.33337 18.6663 5.33337H25.333C25.8723 5.33337 26.3585 5.65823 26.5648 6.15646C26.7712 6.6547 26.6572 7.22819 26.2758 7.60952L19.8536 14.0318C20.8096 15.3767 21.333 16.9947 21.333 18.6667C21.333 20.7884 20.4902 22.8233 18.9899 24.3236C17.4896 25.8239 15.4547 26.6667 13.333 26.6667C11.2113 26.6667 9.17645 25.8239 7.67615 24.3236C6.17586 22.8233 5.33301 20.7884 5.33301 18.6667C5.33301 16.545 6.17586 14.5101 7.67615 13.0099C9.17645 11.5096 11.2113 10.6667 13.333 10.6667C15.005 10.6667 16.623 11.1901 17.968 12.1461L22.1141 8.00004H18.6663ZM13.333 13.3334C11.9185 13.3334 10.562 13.8953 9.56177 14.8955C8.56158 15.8957 7.99967 17.2522 7.99967 18.6667C7.99967 20.0812 8.56158 21.4378 9.56177 22.4379C10.562 23.4381 11.9185 24 13.333 24C14.7475 24 16.1041 23.4381 17.1042 22.4379C18.1044 21.4378 18.6663 20.0812 18.6663 18.6667C18.6663 17.2522 18.1044 15.8957 17.1042 14.8955C16.1041 13.8953 14.7475 13.3334 13.333 13.3334Z" fill="white" stroke="white" stroke-width="0.2" stroke-linecap="round" stroke-linejoin="round"/>
</svg>
